<?xml version="1.0" encoding="utf-8" standalone="no"?>
<!DOCTYPE svg PUBLIC "-//W3C//DTD SVG 1.1//EN"
  "http://www.w3.org/Graphics/SVG/1.1/DTD/svg11.dtd">
<!-- Created with matplotlib (http://matplotlib.org/) -->
<svg height="144pt" version="1.1" viewBox="0 0 432 144" width="432pt" xmlns="http://www.w3.org/2000/svg" xmlns:xlink="http://www.w3.org/1999/xlink">
 <defs>
  <style type="text/css">
*{stroke-linecap:butt;stroke-linejoin:round;}
  </style>
 </defs>
 <g id="figure_1">
  <g id="patch_1">
   <path d="M 0 144 
L 432 144 
L 432 0 
L 0 0 
z
" style="fill:#ffffff;"/>
  </g>
  <g id="axes_1">
   <g id="patch_2">
    <path d="M 42.094646 113.965354 
L 429.165354 113.965354 
L 429.165354 2.834646 
L 42.094646 2.834646 
z
" style="fill:#ffffff;"/>
   </g>
   <g id="matplotlib.axis_1">
    <g id="xtick_1">
     <g id="line2d_1">
      <path clip-path="url(#p8d93a7af4f)" d="M 114.670404 113.965354 
L 114.670404 2.834646 
" style="fill:none;stroke:#000000;stroke-dasharray:0.8,1.32;stroke-dashoffset:0;stroke-width:0.8;"/>
     </g>
     <g id="line2d_2">
      <defs>
       <path d="M 0 0 
L 0 3.5 
" id="m7c87011bef" style="stroke:#000000;stroke-width:0.8;"/>
      </defs>
      <g>
       <use style="stroke:#000000;stroke-width:0.8;" x="114.670404" xlink:href="#m7c87011bef" y="113.965354"/>
      </g>
     </g>
     <g id="text_1">
      <!-- 72.5 -->
      <defs>
       <path d="M 8.203125 72.90625 
L 55.078125 72.90625 
L 55.078125 68.703125 
L 28.609375 0 
L 18.3125 0 
L 43.21875 64.59375 
L 8.203125 64.59375 
z
" id="DejaVuSans-37"/>
       <path d="M 19.1875 8.296875 
L 53.609375 8.296875 
L 53.609375 0 
L 7.328125 0 
L 7.328125 8.296875 
Q 12.9375 14.109375 22.625 23.890625 
Q 32.328125 33.6875 34.8125 36.53125 
Q 39.546875 41.84375 41.421875 45.53125 
Q 43.3125 49.21875 43.3125 52.78125 
Q 43.3125 58.59375 39.234375 62.25 
Q 35.15625 65.921875 28.609375 65.921875 
Q 23.96875 65.921875 18.8125 64.3125 
Q 13.671875 62.703125 7.8125 59.421875 
L 7.8125 69.390625 
Q 13.765625 71.78125 18.9375 73 
Q 24.125 74.21875 28.421875 74.21875 
Q 39.75 74.21875 46.484375 68.546875 
Q 53.21875 62.890625 53.21875 53.421875 
Q 53.21875 48.921875 51.53125 44.890625 
Q 49.859375 40.875 45.40625 35.40625 
Q 44.1875 33.984375 37.640625 27.21875 
Q 31.109375 20.453125 19.1875 8.296875 
z
" id="DejaVuSans-32"/>
       <path d="M 10.6875 12.40625 
L 21 12.40625 
L 21 0 
L 10.6875 0 
z
" id="DejaVuSans-2e"/>
       <path d="M 10.796875 72.90625 
L 49.515625 72.90625 
L 49.515625 64.59375 
L 19.828125 64.59375 
L 19.828125 46.734375 
Q 21.96875 47.46875 24.109375 47.828125 
Q 26.265625 48.1875 28.421875 48.1875 
Q 40.625 48.1875 47.75 41.5 
Q 54.890625 34.8125 54.890625 23.390625 
Q 54.890625 11.625 47.5625 5.09375 
Q 40.234375 -1.421875 26.90625 -1.421875 
Q 22.3125 -1.421875 17.546875 -0.640625 
Q 12.796875 0.140625 7.71875 1.703125 
L 7.71875 11.625 
Q 12.109375 9.234375 16.796875 8.0625 
Q 21.484375 6.890625 26.703125 6.890625 
Q 35.15625 6.890625 40.078125 11.328125 
Q 45.015625 15.765625 45.015625 23.390625 
Q 45.015625 31 40.078125 35.4375 
Q 35.15625 39.890625 26.703125 39.890625 
Q 22.75 39.890625 18.8125 39.015625 
Q 14.890625 38.140625 10.796875 36.28125 
z
" id="DejaVuSans-35"/>
      </defs>
      <g transform="translate(105.764154 127.044104)scale(0.08 -0.08)">
       <use xlink:href="#DejaVuSans-37"/>
       <use x="63.623047" xlink:href="#DejaVuSans-32"/>
       <use x="127.246094" xlink:href="#DejaVuSans-2e"/>
       <use x="159.033203" xlink:href="#DejaVuSans-35"/>
      </g>
     </g>
    </g>
    <g id="xtick_2">
     <g id="line2d_3">
      <path clip-path="url(#p8d93a7af4f)" d="M 235.63 113.965354 
L 235.63 2.834646 
" style="fill:none;stroke:#000000;stroke-dasharray:0.8,1.32;stroke-dashoffset:0;stroke-width:0.8;"/>
     </g>
     <g id="line2d_4">
      <g>
       <use style="stroke:#000000;stroke-width:0.8;" x="235.63" xlink:href="#m7c87011bef" y="113.965354"/>
      </g>
     </g>
     <g id="text_2">
      <!-- 75.0 -->
      <defs>
       <path d="M 31.78125 66.40625 
Q 24.171875 66.40625 20.328125 58.90625 
Q 16.5 51.421875 16.5 36.375 
Q 16.5 21.390625 20.328125 13.890625 
Q 24.171875 6.390625 31.78125 6.390625 
Q 39.453125 6.390625 43.28125 13.890625 
Q 47.125 21.390625 47.125 36.375 
Q 47.125 51.421875 43.28125 58.90625 
Q 39.453125 66.40625 31.78125 66.40625 
z
M 31.78125 74.21875 
Q 44.046875 74.21875 50.515625 64.515625 
Q 56.984375 54.828125 56.984375 36.375 
Q 56.984375 17.96875 50.515625 8.265625 
Q 44.046875 -1.421875 31.78125 -1.421875 
Q 19.53125 -1.421875 13.0625 8.265625 
Q 6.59375 17.96875 6.59375 36.375 
Q 6.59375 54.828125 13.0625 64.515625 
Q 19.53125 74.21875 31.78125 74.21875 
z
" id="DejaVuSans-30"/>
      </defs>
      <g transform="translate(226.72375 127.044104)scale(0.08 -0.08)">
       <use xlink:href="#DejaVuSans-37"/>
       <use x="63.623047" xlink:href="#DejaVuSans-35"/>
       <use x="127.246094" xlink:href="#DejaVuSans-2e"/>
       <use x="159.033203" xlink:href="#DejaVuSans-30"/>
      </g>
     </g>
    </g>
    <g id="xtick_3">
     <g id="line2d_5">
      <path clip-path="url(#p8d93a7af4f)" d="M 356.589596 113.965354 
L 356.589596 2.834646 
" style="fill:none;stroke:#000000;stroke-dasharray:0.8,1.32;stroke-dashoffset:0;stroke-width:0.8;"/>
     </g>
     <g id="line2d_6">
      <g>
       <use style="stroke:#000000;stroke-width:0.8;" x="356.589596" xlink:href="#m7c87011bef" y="113.965354"/>
      </g>
     </g>
     <g id="text_3">
      <!-- 77.5 -->
      <g transform="translate(347.683346 127.044104)scale(0.08 -0.08)">
       <use xlink:href="#DejaVuSans-37"/>
       <use x="63.623047" xlink:href="#DejaVuSans-37"/>
       <use x="127.246094" xlink:href="#DejaVuSans-2e"/>
       <use x="159.033203" xlink:href="#DejaVuSans-35"/>
      </g>
     </g>
    </g>
    <g id="text_4">
     <!-- $\theta$ -->
     <defs>
      <path d="M 45.515625 34.671875 
L 14.453125 34.671875 
Q 12.359375 20.0625 14.5 13.875 
Q 17.1875 6.25 24.46875 6.25 
Q 31.78125 6.25 37.359375 13.921875 
Q 42.234375 20.65625 45.515625 34.671875 
z
M 47.015625 42.96875 
Q 48.34375 56.84375 46.625 61.71875 
Q 43.953125 69.4375 36.765625 69.4375 
Q 29.296875 69.4375 23.828125 61.8125 
Q 19.53125 55.671875 16.15625 42.96875 
z
M 38.1875 76.765625 
Q 49.90625 76.765625 54.59375 66.40625 
Q 59.28125 56.109375 55.71875 37.84375 
Q 52.203125 19.625 43.453125 9.28125 
Q 34.765625 -1.125 23.046875 -1.125 
Q 11.28125 -1.125 6.640625 9.28125 
Q 2 19.625 5.515625 37.84375 
Q 9.078125 56.109375 17.71875 66.40625 
Q 26.421875 76.765625 38.1875 76.765625 
z
" id="DejaVuSans-Oblique-3b8"/>
     </defs>
     <g transform="translate(232.22 141.066136)scale(0.11 -0.11)">
      <use transform="translate(0 0.234375)" xlink:href="#DejaVuSans-Oblique-3b8"/>
     </g>
    </g>
   </g>
   <g id="matplotlib.axis_2">
    <g id="ytick_1">
     <g id="line2d_7">
      <path clip-path="url(#p8d93a7af4f)" d="M 42.094646 86.145147 
L 429.165354 86.145147 
" style="fill:none;stroke:#000000;stroke-dasharray:0.8,1.32;stroke-dashoffset:0;stroke-width:0.8;"/>
     </g>
     <g id="line2d_8">
      <defs>
       <path d="M 0 0 
L -3.5 0 
" id="mbe95904e73" style="stroke:#000000;stroke-width:0.8;"/>
      </defs>
      <g>
       <use style="stroke:#000000;stroke-width:0.8;" x="42.094646" xlink:href="#mbe95904e73" y="86.145147"/>
      </g>
     </g>
     <g id="text_5">
      <!-- 0.25 -->
      <g transform="translate(17.282146 89.184522)scale(0.08 -0.08)">
       <use xlink:href="#DejaVuSans-30"/>
       <use x="63.623047" xlink:href="#DejaVuSans-2e"/>
       <use x="95.410156" xlink:href="#DejaVuSans-32"/>
       <use x="159.033203" xlink:href="#DejaVuSans-35"/>
      </g>
     </g>
    </g>
    <g id="ytick_2">
     <g id="line2d_9">
      <path clip-path="url(#p8d93a7af4f)" d="M 42.094646 58.324907 
L 429.165354 58.324907 
" style="fill:none;stroke:#000000;stroke-dasharray:0.8,1.32;stroke-dashoffset:0;stroke-width:0.8;"/>
     </g>
     <g id="line2d_10">
      <g>
       <use style="stroke:#000000;stroke-width:0.8;" x="42.094646" xlink:href="#mbe95904e73" y="58.324907"/>
      </g>
     </g>
     <g id="text_6">
      <!-- 0.50 -->
      <g transform="translate(17.282146 61.364282)scale(0.08 -0.08)">
       <use xlink:href="#DejaVuSans-30"/>
       <use x="63.623047" xlink:href="#DejaVuSans-2e"/>
       <use x="95.410156" xlink:href="#DejaVuSans-35"/>
       <use x="159.033203" xlink:href="#DejaVuSans-30"/>
      </g>
     </g>
    </g>
    <g id="ytick_3">
     <g id="line2d_11">
      <path clip-path="url(#p8d93a7af4f)" d="M 42.094646 30.504667 
L 429.165354 30.504667 
" style="fill:none;stroke:#000000;stroke-dasharray:0.8,1.32;stroke-dashoffset:0;stroke-width:0.8;"/>
     </g>
     <g id="line2d_12">
      <g>
       <use style="stroke:#000000;stroke-width:0.8;" x="42.094646" xlink:href="#mbe95904e73" y="30.504667"/>
      </g>
     </g>
     <g id="text_7">
      <!-- 0.75 -->
      <g transform="translate(17.282146 33.544042)scale(0.08 -0.08)">
       <use xlink:href="#DejaVuSans-30"/>
       <use x="63.623047" xlink:href="#DejaVuSans-2e"/>
       <use x="95.410156" xlink:href="#DejaVuSans-37"/>
       <use x="159.033203" xlink:href="#DejaVuSans-35"/>
      </g>
     </g>
    </g>
    <g id="text_8">
     <!-- $K(\theta)$ -->
     <defs>
      <path d="M 16.890625 72.90625 
L 26.8125 72.90625 
L 20.796875 42.1875 
L 59.078125 72.90625 
L 72.21875 72.90625 
L 28.90625 38.09375 
L 60.59375 0 
L 48.578125 0 
L 19.484375 35.5 
L 12.59375 0 
L 2.6875 0 
z
" id="DejaVuSans-Oblique-4b"/>
      <path d="M 31 75.875 
Q 24.46875 64.65625 21.28125 53.65625 
Q 18.109375 42.671875 18.109375 31.390625 
Q 18.109375 20.125 21.3125 9.0625 
Q 24.515625 -2 31 -13.1875 
L 23.1875 -13.1875 
Q 15.875 -1.703125 12.234375 9.375 
Q 8.59375 20.453125 8.59375 31.390625 
Q 8.59375 42.28125 12.203125 53.3125 
Q 15.828125 64.359375 23.1875 75.875 
z
" id="DejaVuSans-28"/>
      <path d="M 8.015625 75.875 
L 15.828125 75.875 
Q 23.140625 64.359375 26.78125 53.3125 
Q 30.421875 42.28125 30.421875 31.390625 
Q 30.421875 20.453125 26.78125 9.375 
Q 23.140625 -1.703125 15.828125 -13.1875 
L 8.015625 -13.1875 
Q 14.5 -2 17.703125 9.0625 
Q 20.90625 20.125 20.90625 31.390625 
Q 20.90625 42.671875 17.703125 53.65625 
Q 14.5 64.65625 8.015625 75.875 
z
" id="DejaVuSans-29"/>
     </defs>
     <g transform="translate(10.994489 69.675)rotate(-90)scale(0.11 -0.11)">
      <use transform="translate(0 0.234375)" xlink:href="#DejaVuSans-Oblique-4b"/>
      <use transform="translate(65.576172 0.234375)" xlink:href="#DejaVuSans-28"/>
      <use transform="translate(104.589844 0.234375)" xlink:href="#DejaVuSans-Oblique-3b8"/>
      <use transform="translate(165.771484 0.234375)" xlink:href="#DejaVuSans-29"/>
     </g>
    </g>
   </g>
   <g id="line2d_13">
    <path clip-path="url(#p8d93a7af4f)" d="M 42.094646 111.43373 
L 46.93303 111.117922 
L 51.771413 110.76978 
L 56.609797 110.38695 
L 61.448181 109.967026 
L 66.286565 109.507565 
L 71.124949 109.006099 
L 75.963333 108.460154 
L 80.801717 107.867269 
L 85.6401 107.225014 
L 90.478484 106.531017 
L 95.316868 105.78298 
L 100.155252 104.978708 
L 104.993636 104.116132 
L 109.83202 103.193336 
L 114.670404 102.208578 
L 119.508787 101.160323 
L 124.347171 100.047261 
L 129.185555 98.868337 
L 134.023939 97.62277 
L 138.862323 96.310077 
L 143.700707 94.930097 
L 148.539091 93.482999 
L 153.377474 91.969309 
L 158.215858 90.389914 
L 163.054242 88.746077 
L 167.892626 87.039439 
L 172.73101 85.272024 
L 177.569394 83.446236 
L 182.407778 81.564857 
L 187.246161 79.631033 
L 192.084545 77.648265 
L 196.922929 75.620387 
L 201.761313 73.551553 
L 206.599697 71.446203 
L 211.438081 69.309042 
L 216.276465 67.145003 
L 221.114848 64.959221 
L 225.953232 62.756987 
L 230.791616 60.543716 
L 235.63 58.324907 
L 240.468384 56.106098 
L 245.306768 53.892827 
L 250.145152 51.690593 
L 254.983535 49.504811 
L 259.821919 47.340772 
L 264.660303 45.203611 
L 269.498687 43.098261 
L 274.337071 41.029427 
L 279.175455 39.001549 
L 284.013839 37.018781 
L 288.852222 35.084957 
L 293.690606 33.203578 
L 298.52899 31.37779 
L 303.367374 29.610375 
L 308.205758 27.903737 
L 313.044142 26.2599 
L 317.882526 24.680505 
L 322.720909 23.166815 
L 327.559293 21.719717 
L 332.397677 20.339736 
L 337.236061 19.027044 
L 342.074445 17.781477 
L 346.912829 16.602553 
L 351.751213 15.489491 
L 356.589596 14.441236 
L 361.42798 13.456478 
L 366.266364 12.533682 
L 371.104748 11.671106 
L 375.943132 10.866834 
L 380.781516 10.118797 
L 385.6199 9.4248 
L 390.458283 8.782545 
L 395.296667 8.18966 
L 400.135051 7.643715 
L 404.973435 7.142249 
L 409.811819 6.682788 
L 414.650203 6.262864 
L 419.488587 5.880034 
L 424.32697 5.531892 
L 429.165354 5.216084 
" style="fill:none;stroke:#009afa;stroke-linecap:round;"/>
   </g>
   <g id="line2d_14">
    <path clip-path="url(#p8d93a7af4f)" d="M 42.094646 113.939499 
L 46.93303 113.934195 
L 51.771413 113.927892 
L 56.609797 113.920422 
L 61.448181 113.91159 
L 66.286565 113.901174 
L 71.124949 113.888921 
L 75.963333 113.874542 
L 80.801717 113.85771 
L 85.6401 113.838058 
L 90.478484 113.815168 
L 95.316868 113.788575 
L 100.155252 113.757757 
L 104.993636 113.72213 
L 109.83202 113.681049 
L 114.670404 113.633795 
L 119.508787 113.579578 
L 124.347171 113.517526 
L 129.185555 113.446685 
L 134.023939 113.366011 
L 138.862323 113.274369 
L 143.700707 113.170527 
L 148.539091 113.053157 
L 153.377474 112.920825 
L 158.215858 112.771997 
L 163.054242 112.605035 
L 167.892626 112.418197 
L 172.73101 112.209639 
L 177.569394 111.977416 
L 182.407778 111.71949 
L 187.246161 111.43373 
L 192.084545 111.117922 
L 196.922929 110.76978 
L 201.761313 110.38695 
L 206.599697 109.967026 
L 211.438081 109.507565 
L 216.276465 109.006099 
L 221.114848 108.460154 
L 225.953232 107.867269 
L 230.791616 107.225014 
L 235.63 106.531017 
L 240.468384 105.78298 
L 245.306768 104.978708 
L 250.145152 104.116132 
L 254.983535 103.193336 
L 259.821919 102.208578 
L 264.660303 101.160323 
L 269.498687 100.047261 
L 274.337071 98.868337 
L 279.175455 97.62277 
L 284.013839 96.310077 
L 288.852222 94.930097 
L 293.690606 93.482999 
L 298.52899 91.969309 
L 303.367374 90.389914 
L 308.205758 88.746077 
L 313.044142 87.039439 
L 317.882526 85.272024 
L 322.720909 83.446236 
L 327.559293 81.564857 
L 332.397677 79.631033 
L 337.236061 77.648265 
L 342.074445 75.620387 
L 346.912829 73.551553 
L 351.751213 71.446203 
L 356.589596 69.309042 
L 361.42798 67.145003 
L 366.266364 64.959221 
L 371.104748 62.756987 
L 375.943132 60.543716 
L 380.781516 58.324907 
L 385.6199 56.106098 
L 390.458283 53.892827 
L 395.296667 51.690593 
L 400.135051 49.504811 
L 404.973435 47.340772 
L 409.811819 45.203611 
L 414.650203 43.098261 
L 419.488587 41.029427 
L 424.32697 39.001549 
L 429.165354 37.018781 
" style="fill:none;stroke:#e36f47;stroke-linecap:round;"/>
   </g>
   <g id="patch_3">
    <path d="M 42.094646 113.965354 
L 42.094646 2.834646 
" style="fill:none;stroke:#000000;stroke-linecap:square;stroke-linejoin:miter;stroke-width:0.8;"/>
   </g>
   <g id="patch_4">
    <path d="M 429.165354 113.965354 
L 429.165354 2.834646 
" style="fill:none;stroke:#000000;stroke-linecap:square;stroke-linejoin:miter;stroke-width:0.8;"/>
   </g>
   <g id="patch_5">
    <path d="M 42.094646 113.965354 
L 429.165354 113.965354 
" style="fill:none;stroke:#000000;stroke-linecap:square;stroke-linejoin:miter;stroke-width:0.8;"/>
   </g>
   <g id="patch_6">
    <path d="M 42.094646 2.834646 
L 429.165354 2.834646 
" style="fill:none;stroke:#000000;stroke-linecap:square;stroke-linejoin:miter;stroke-width:0.8;"/>
   </g>
   <g id="line2d_15">
    <path clip-path="url(#p8d93a7af4f)" d="M 42.094646 113.965354 
L 46.93303 113.965333 
L 51.771413 113.965298 
L 56.609797 113.965241 
L 61.448181 113.965151 
L 66.286565 113.965008 
L 71.124949 113.964784 
L 75.963333 113.964436 
L 80.801717 113.963901 
L 85.6401 113.963087 
L 90.478484 113.961862 
L 95.316868 113.960034 
L 100.155252 113.957335 
L 104.993636 113.95339 
L 109.83202 113.94768 
L 114.670404 113.939499 
L 119.508787 113.927892 
L 124.347171 113.91159 
L 129.185555 113.888921 
L 134.023939 113.85771 
L 138.862323 113.815168 
L 143.700707 113.757757 
L 148.539091 113.681049 
L 153.377474 113.579578 
L 158.215858 113.446685 
L 163.054242 113.274369 
L 167.892626 113.053157 
L 172.73101 112.771997 
L 177.569394 112.418197 
L 182.407778 111.977416 
L 187.246161 111.43373 
L 192.084545 110.76978 
L 196.922929 109.967026 
L 201.761313 109.006099 
L 206.599697 107.867269 
L 211.438081 106.531017 
L 216.276465 104.978708 
L 221.114848 103.193336 
L 225.953232 101.160323 
L 230.791616 98.868337 
L 235.63 96.310077 
L 240.468384 93.482999 
L 245.306768 90.389914 
L 250.145152 87.039439 
L 254.983535 83.446236 
L 259.821919 79.631033 
L 264.660303 75.620387 
L 269.498687 71.446203 
L 274.337071 67.145003 
L 279.175455 62.756987 
L 284.013839 58.324907 
L 288.852222 53.892827 
L 293.690606 49.504811 
L 298.52899 45.203611 
L 303.367374 41.029427 
L 308.205758 37.018781 
L 313.044142 33.203578 
L 317.882526 29.610375 
L 322.720909 26.2599 
L 327.559293 23.166815 
L 332.397677 20.339736 
L 337.236061 17.781477 
L 342.074445 15.489491 
L 346.912829 13.456478 
L 351.751213 11.671106 
L 356.589596 10.118797 
L 361.42798 8.782545 
L 366.266364 7.643715 
L 371.104748 6.682788 
L 375.943132 5.880034 
L 380.781516 5.216084 
L 385.6199 4.672398 
L 390.458283 4.231617 
L 395.296667 3.877817 
L 400.135051 3.596657 
L 404.973435 3.375445 
L 409.811819 3.203129 
L 414.650203 3.070236 
L 419.488587 2.968765 
L 424.32697 2.892057 
L 429.165354 2.834646 
" style="fill:none;stroke:#3ea44e;stroke-linecap:round;"/>
   </g>
   <g id="legend_1">
    <g id="patch_7">
     <path d="M 47.694646 44.462146 
L 93.534646 44.462146 
Q 95.134646 44.462146 95.134646 42.862146 
L 95.134646 8.434646 
Q 95.134646 6.834646 93.534646 6.834646 
L 47.694646 6.834646 
Q 46.094646 6.834646 46.094646 8.434646 
L 46.094646 42.862146 
Q 46.094646 44.462146 47.694646 44.462146 
z
" style="fill:#ffffff;opacity:0.8;stroke:#000000;stroke-linejoin:miter;"/>
    </g>
    <g id="line2d_16">
     <path d="M 49.294646 13.313396 
L 65.294646 13.313396 
" style="fill:none;stroke:#009afa;stroke-linecap:round;"/>
    </g>
    <g id="line2d_17"/>
    <g id="text_9">
     <!-- $K_{1}(\theta)$ -->
     <defs>
      <path d="M 12.40625 8.296875 
L 28.515625 8.296875 
L 28.515625 63.921875 
L 10.984375 60.40625 
L 10.984375 69.390625 
L 28.421875 72.90625 
L 38.28125 72.90625 
L 38.28125 8.296875 
L 54.390625 8.296875 
L 54.390625 0 
L 12.40625 0 
z
" id="DejaVuSans-31"/>
     </defs>
     <g transform="translate(71.694646 16.113396)scale(0.08 -0.08)">
      <use transform="translate(0 0.234375)" xlink:href="#DejaVuSans-Oblique-4b"/>
      <use transform="translate(65.576172 -16.171875)scale(0.7)" xlink:href="#DejaVuSans-31"/>
      <use transform="translate(112.84668 0.234375)" xlink:href="#DejaVuSans-28"/>
      <use transform="translate(151.860352 0.234375)" xlink:href="#DejaVuSans-Oblique-3b8"/>
      <use transform="translate(213.041992 0.234375)" xlink:href="#DejaVuSans-29"/>
     </g>
    </g>
    <g id="line2d_18">
     <path d="M 49.294646 25.055896 
L 65.294646 25.055896 
" style="fill:none;stroke:#e36f47;stroke-linecap:round;"/>
    </g>
    <g id="line2d_19"/>
    <g id="text_10">
     <!-- $K_{2}(\theta)$ -->
     <g transform="translate(71.694646 27.855896)scale(0.08 -0.08)">
      <use transform="translate(0 0.234375)" xlink:href="#DejaVuSans-Oblique-4b"/>
      <use transform="translate(65.576172 -16.171875)scale(0.7)" xlink:href="#DejaVuSans-32"/>
      <use transform="translate(112.84668 0.234375)" xlink:href="#DejaVuSans-28"/>
      <use transform="translate(151.860352 0.234375)" xlink:href="#DejaVuSans-Oblique-3b8"/>
      <use transform="translate(213.041992 0.234375)" xlink:href="#DejaVuSans-29"/>
     </g>
    </g>
    <g id="line2d_20">
     <path d="M 49.294646 36.798396 
L 65.294646 36.798396 
" style="fill:none;stroke:#3ea44e;stroke-linecap:round;"/>
    </g>
    <g id="line2d_21"/>
    <g id="text_11">
     <!-- $K_{3}(\theta)$ -->
     <defs>
      <path d="M 40.578125 39.3125 
Q 47.65625 37.796875 51.625 33 
Q 55.609375 28.21875 55.609375 21.1875 
Q 55.609375 10.40625 48.1875 4.484375 
Q 40.765625 -1.421875 27.09375 -1.421875 
Q 22.515625 -1.421875 17.65625 -0.515625 
Q 12.796875 0.390625 7.625 2.203125 
L 7.625 11.71875 
Q 11.71875 9.328125 16.59375 8.109375 
Q 21.484375 6.890625 26.8125 6.890625 
Q 36.078125 6.890625 40.9375 10.546875 
Q 45.796875 14.203125 45.796875 21.1875 
Q 45.796875 27.640625 41.28125 31.265625 
Q 36.765625 34.90625 28.71875 34.90625 
L 20.21875 34.90625 
L 20.21875 43.015625 
L 29.109375 43.015625 
Q 36.375 43.015625 40.234375 45.921875 
Q 44.09375 48.828125 44.09375 54.296875 
Q 44.09375 59.90625 40.109375 62.90625 
Q 36.140625 65.921875 28.71875 65.921875 
Q 24.65625 65.921875 20.015625 65.03125 
Q 15.375 64.15625 9.8125 62.3125 
L 9.8125 71.09375 
Q 15.4375 72.65625 20.34375 73.4375 
Q 25.25 74.21875 29.59375 74.21875 
Q 40.828125 74.21875 47.359375 69.109375 
Q 53.90625 64.015625 53.90625 55.328125 
Q 53.90625 49.265625 50.4375 45.09375 
Q 46.96875 40.921875 40.578125 39.3125 
z
" id="DejaVuSans-33"/>
     </defs>
     <g transform="translate(71.694646 39.598396)scale(0.08 -0.08)">
      <use transform="translate(0 0.234375)" xlink:href="#DejaVuSans-Oblique-4b"/>
      <use transform="translate(65.576172 -16.171875)scale(0.7)" xlink:href="#DejaVuSans-33"/>
      <use transform="translate(112.84668 0.234375)" xlink:href="#DejaVuSans-28"/>
      <use transform="translate(151.860352 0.234375)" xlink:href="#DejaVuSans-Oblique-3b8"/>
      <use transform="translate(213.041992 0.234375)" xlink:href="#DejaVuSans-29"/>
     </g>
    </g>
   </g>
  </g>
 </g>
 <defs>
  <clipPath id="p8d93a7af4f">
   <rect height="111.130709" width="387.070709" x="42.094646" y="2.834646"/>
  </clipPath>
 </defs>
</svg>
