<?xml version="1.0" encoding="UTF-8" standalone="no"?>
<!-- Created with Inkscape (http://www.inkscape.org/) -->

<svg
   xmlns:dc="http://purl.org/dc/elements/1.1/"
   xmlns:cc="http://creativecommons.org/ns#"
   xmlns:rdf="http://www.w3.org/1999/02/22-rdf-syntax-ns#"
   xmlns:svg="http://www.w3.org/2000/svg"
   xmlns="http://www.w3.org/2000/svg"
   xmlns:sodipodi="http://sodipodi.sourceforge.net/DTD/sodipodi-0.dtd"
   xmlns:inkscape="http://www.inkscape.org/namespaces/inkscape"
   id="svg4558"
   version="1.1"
   inkscape:version="0.48.3.1 r9886"
   width="895"
   height="286.25"
   xml:space="preserve"
   sodipodi:docname="local-remote-clone.pdf"><metadata
     id="metadata4564"><rdf:RDF><cc:Work
         rdf:about=""><dc:format>image/svg+xml</dc:format><dc:type
           rdf:resource="http://purl.org/dc/dcmitype/StillImage" /><dc:title></dc:title></cc:Work></rdf:RDF></metadata><defs
     id="defs4562" /><sodipodi:namedview
     pagecolor="#ffffff"
     bordercolor="#666666"
     borderopacity="1"
     objecttolerance="10"
     gridtolerance="10"
     guidetolerance="10"
     inkscape:pageopacity="0"
     inkscape:pageshadow="2"
     inkscape:window-width="640"
     inkscape:window-height="480"
     id="namedview4560"
     showgrid="false"
     inkscape:zoom="0.45139665"
     inkscape:cx="447.5"
     inkscape:cy="143.125"
     inkscape:window-x="0"
     inkscape:window-y="24"
     inkscape:window-maximized="0"
     inkscape:current-layer="g4566" /><g
     id="g4566"
     inkscape:groupmode="layer"
     inkscape:label="local-remote-clone"
     transform="matrix(1.25,0,0,-1.25,0,286.25)"><g
       id="g4568" /><path
       inkscape:connector-curvature="0"
       id="path4572"
       style="fill:#ffffff;fill-opacity:1;fill-rule:nonzero;stroke:none"
       d="M 0,0 716,0 716,229 0,229 0,0 z" /><path
       inkscape:connector-curvature="0"
       id="path4574"
       style="fill:#dddddd;fill-opacity:1;fill-rule:nonzero;stroke:none"
       d="m 550.429,17.67169 155.906,0 0,172.365 -155.906,0 0,-172.365 z" /><g
       transform="matrix(1,0,0,-1,-16.5,238.5)"
       id="g4576"><path
         inkscape:connector-curvature="0"
         id="path4578"
         style="fill:none;stroke:#929292;stroke-width:2;stroke-linecap:round;stroke-linejoin:round;stroke-miterlimit:10;stroke-opacity:1;stroke-dasharray:2, 8;stroke-dashoffset:0"
         d="m 566.929,42.5197 0,184.2523" /></g><g
       transform="matrix(1,0,0,-1,-16.5,238.5)"
       id="g4592"><path
         inkscape:connector-curvature="0"
         id="path4594"
         style="fill:none;stroke:#929292;stroke-width:2;stroke-linecap:round;stroke-linejoin:round;stroke-miterlimit:10;stroke-opacity:1;stroke-dasharray:none"
         d="m 644.881,141.732 0,73.152" /></g><g
       transform="matrix(1,0,0,-1,627.882,207.1535)"
       id="g4650"><text
         id="text4652"
         transform="translate(-33.00732,7)"><tspan
           id="tspan4654"
           sodipodi:role="line"
           y="0"
           x="0 12.9996 23.0112 39.0168 50.0112 56.005199"
           style="font-size:18px;font-variant:normal;font-weight:bold;writing-mode:lr-tb;fill:#000000;fill-opacity:1;fill-rule:nonzero;stroke:none;font-family:Helvetica;-inkscape-font-specification:Helvetica-Bold">Remote</tspan></text>
</g><path
       inkscape:connector-curvature="0"
       id="path4656"
       style="fill:#fcb6ad;fill-opacity:1;fill-rule:nonzero;stroke:none"
       d="m 593.6569,167.6339 69.4489,0 c 8.2148,0 14.8819,-12.6992 14.8819,-28.3465 0,-15.6472 -6.6671,-28.3464 -14.8819,-28.3464 l -69.4489,0 c -8.2148,0 -14.8819,12.6992 -14.8819,28.3464 0,15.6473 6.6671,28.3465 14.8819,28.3465" /><g
       transform="matrix(1,0,0,-1,-16.5,238.5)"
       id="g4658"><path
         inkscape:connector-curvature="0"
         id="path4660"
         style="fill:none;stroke:#929292;stroke-width:2;stroke-linecap:round;stroke-linejoin:round;stroke-miterlimit:10;stroke-opacity:1;stroke-dasharray:none"
         d="m 610.1569,70.86609 69.4489,0 c 8.2148,0 14.8819,12.69922 14.8819,28.34646 0,15.64725 -6.6671,28.34645 -14.8819,28.34645 l -69.4489,0 c -8.2148,0 -14.8819,-12.6992 -14.8819,-28.34645 0,-15.64724 6.6671,-28.34646 14.8819,-28.34646" /></g><g
       transform="matrix(1,0,0,-1,627.8813,139.7874)"
       id="g4662"><text
         id="text4664"
         transform="translate(-22.9585,5.5)"><tspan
           id="tspan4666"
           sodipodi:role="line"
           y="0"
           x="0 12.4488 20.2356 28.0224 32.684399 40.471199"
           style="font-size:14px;font-variant:normal;font-weight:bold;writing-mode:lr-tb;fill:#000000;fill-opacity:1;fill-rule:nonzero;stroke:none;font-family:Helvetica;-inkscape-font-specification:Helvetica-Bold">master</tspan></text>
</g></g></svg>